<svg t="1689311711197" class="icon" viewBox="0 0 1024 1024" version="1.1"
    xmlns="http://www.w3.org/2000/svg" p-id="1891" width="26" height="26">
    <path
        d="M192 128H469.333333c25.6 0 42.666667 17.066667 42.666667 42.666667v686.933333c0 25.6-17.066667 42.666667-42.666667 42.666667H192c-25.6 0-42.666667-17.066667-42.666667-42.666667V170.666667c0-25.6 17.066667-42.666667 42.666667-42.666667zM554.666667 243.2h277.333333c25.6 0 42.666667 17.066667 42.666667 42.666667v413.866666c0 25.6-17.066667 42.666667-42.666667 42.666667H554.666667c-25.6 0-42.666667-17.066667-42.666667-42.666667V285.866667c0-21.333333 17.066667-42.666667 42.666667-42.666667z"
        fill="#4F2AB5" p-id="1892"></path>
    <path
        d="M192 128H469.333333c25.6 0 42.666667 17.066667 42.666667 42.666667v597.333333c0 25.6-17.066667 42.666667-42.666667 42.666667H192c-25.6 0-42.666667-17.066667-42.666667-42.666667V170.666667c0-25.6 17.066667-42.666667 42.666667-42.666667z"
        fill="#723FDB" p-id="1893"></path>
    <path
        d="M486.4 170.666667v593.066666c0 8.533333-8.533333 17.066667-17.066667 17.066667H192c-8.533333 0-17.066667-8.533333-17.066667-17.066667V170.666667c0-8.533333 8.533333-17.066667 17.066667-17.066667H469.333333c8.533333 0 17.066667 8.533333 17.066667 17.066667z"
        fill="#7750E2" p-id="1894"></path>
    <path
        d="M554.666667 243.2h277.333333c25.6 0 42.666667 17.066667 42.666667 42.666667v324.266666c0 25.6-17.066667 42.666667-42.666667 42.666667H554.666667c-25.6 0-42.666667-17.066667-42.666667-42.666667V285.866667c0-21.333333 17.066667-42.666667 42.666667-42.666667z"
        fill="#723FDB" p-id="1895"></path>
    <path
        d="M849.066667 290.133333v320c0 8.533333-8.533333 17.066667-17.066667 17.066667H554.666667c-8.533333 0-17.066667-8.533333-17.066667-17.066667V290.133333c0-8.533333 8.533333-17.066667 17.066667-17.066666h273.066666c12.8 0 21.333333 4.266667 21.333334 17.066666z"
        fill="#7750E2" p-id="1896"></path>
    <path
        d="M264.533333 311.466667C234.666667 311.466667 213.333333 285.866667 213.333333 256s21.333333-51.2 51.2-51.2 51.2 21.333333 51.2 51.2-21.333333 55.466667-51.2 55.466667z"
        fill="#4F2AB5" p-id="1897"></path>
    <path d="M264.533333 256m-38.4 0a38.4 38.4 0 1 0 76.8 0 38.4 38.4 0 1 0-76.8 0Z" fill="#EDC35B"
        p-id="1898"></path>
    <path
        d="M396.8 311.466667c-25.6 0-51.2-25.6-51.2-55.466667s21.333333-51.2 51.2-51.2 51.2 21.333333 51.2 51.2-21.333333 55.466667-51.2 55.466667z"
        fill="#4F2AB5" p-id="1899"></path>
    <path d="M396.8 256m-38.4 0a38.4 38.4 0 1 0 76.8 0 38.4 38.4 0 1 0-76.8 0Z" fill="#EDC35B"
        p-id="1900"></path>
    <path
        d="M264.533333 452.266667C234.666667 452.266667 213.333333 426.666667 213.333333 396.8c0-29.866667 21.333333-51.2 51.2-51.2s51.2 21.333333 51.2 51.2-21.333333 55.466667-51.2 55.466667z"
        fill="#4F2AB5" p-id="1901"></path>
    <path d="M264.533333 396.8m-38.4 0a38.4 38.4 0 1 0 76.8 0 38.4 38.4 0 1 0-76.8 0Z"
        fill="#EDC35B" p-id="1902"></path>
    <path
        d="M396.8 452.266667c-29.866667 0-51.2-21.333333-51.2-51.2s21.333333-51.2 51.2-51.2 51.2 21.333333 51.2 51.2c0 25.6-21.333333 51.2-51.2 51.2z"
        fill="#4F2AB5" p-id="1903"></path>
    <path d="M396.8 396.8m-38.4 0a38.4 38.4 0 1 0 76.8 0 38.4 38.4 0 1 0-76.8 0Z" fill="#EDC35B"
        p-id="1904"></path>
    <path
        d="M264.533333 593.066667c-29.866667 0-51.2-21.333333-51.2-51.2s21.333333-51.2 51.2-51.2 51.2 21.333333 51.2 51.2c0 25.6-21.333333 51.2-51.2 51.2z"
        fill="#4F2AB5" p-id="1905"></path>
    <path d="M264.533333 537.6m-38.4 0a38.4 38.4 0 1 0 76.8 0 38.4 38.4 0 1 0-76.8 0Z"
        fill="#EDC35B" p-id="1906"></path>
    <path
        d="M396.8 593.066667c-29.866667 0-51.2-21.333333-51.2-51.2s21.333333-51.2 51.2-51.2 51.2 21.333333 51.2 51.2c0 25.6-21.333333 51.2-51.2 51.2z"
        fill="#4F2AB5" p-id="1907"></path>
    <path d="M396.8 537.6m-38.4 0a38.4 38.4 0 1 0 76.8 0 38.4 38.4 0 1 0-76.8 0Z" fill="#EDC35B"
        p-id="1908"></path>
    <path
        d="M264.533333 733.866667c-29.866667 0-51.2-21.333333-51.2-51.2s21.333333-51.2 51.2-51.2 51.2 21.333333 51.2 51.2c0 25.6-21.333333 51.2-51.2 51.2z"
        fill="#4F2AB5" p-id="1909"></path>
    <path d="M264.533333 678.4m-38.4 0a38.4 38.4 0 1 0 76.8 0 38.4 38.4 0 1 0-76.8 0Z"
        fill="#EDC35B" p-id="1910"></path>
    <path
        d="M396.8 733.866667c-29.866667 0-51.2-21.333333-51.2-51.2s21.333333-51.2 51.2-51.2 51.2 21.333333 51.2 51.2c0 25.6-21.333333 51.2-51.2 51.2z"
        fill="#4F2AB5" p-id="1911"></path>
    <path d="M396.8 678.4m-38.4 0a38.4 38.4 0 1 0 76.8 0 38.4 38.4 0 1 0-76.8 0Z" fill="#EDC35B"
        p-id="1912"></path>
    <path
        d="M627.2 435.2c-29.866667 0-51.2-21.333333-51.2-51.2s21.333333-51.2 51.2-51.2 51.2 21.333333 51.2 51.2c0 25.6-21.333333 51.2-51.2 51.2z"
        fill="#4F2AB5" p-id="1913"></path>
    <path d="M627.2 384m-38.4 0a38.4 38.4 0 1 0 76.8 0 38.4 38.4 0 1 0-76.8 0Z" fill="#6ED6AB"
        p-id="1914"></path>
    <path
        d="M759.466667 435.2c-29.866667 0-51.2-21.333333-51.2-51.2s21.333333-51.2 51.2-51.2c29.866667-4.266667 51.2 21.333333 51.2 51.2 0 25.6-21.333333 51.2-51.2 51.2z"
        fill="#4F2AB5" p-id="1915"></path>
    <path d="M759.466667 384m-38.4 0a38.4 38.4 0 1 0 76.8 0 38.4 38.4 0 1 0-76.8 0Z" fill="#6ED6AB"
        p-id="1916"></path>
    <path
        d="M627.2 576c-29.866667 0-51.2-21.333333-51.2-51.2s21.333333-51.2 51.2-51.2 51.2 21.333333 51.2 51.2c0 25.6-21.333333 51.2-51.2 51.2z"
        fill="#4F2AB5" p-id="1917"></path>
    <path d="M627.2 524.8m-38.4 0a38.4 38.4 0 1 0 76.8 0 38.4 38.4 0 1 0-76.8 0Z" fill="#6ED6AB"
        p-id="1918"></path>
    <path
        d="M759.466667 576c-29.866667 0-51.2-21.333333-51.2-51.2s21.333333-51.2 51.2-51.2 51.2 21.333333 51.2 51.2c0 25.6-21.333333 51.2-51.2 51.2z"
        fill="#4F2AB5" p-id="1919"></path>
    <path d="M759.466667 524.8m-38.4 0a38.4 38.4 0 1 0 76.8 0 38.4 38.4 0 1 0-76.8 0Z"
        fill="#6ED6AB" p-id="1920"></path>
    <path
        d="M469.333333 921.6H192c-34.133333 0-64-29.866667-64-64V170.666667c0-34.133333 29.866667-64 64-64H469.333333c34.133333 0 64 29.866667 64 64v686.933333c0 34.133333-29.866667 64-64 64zM192 149.333333c-12.8 0-21.333333 8.533333-21.333333 21.333334v686.933333c0 12.8 8.533333 21.333333 21.333333 21.333333H469.333333c12.8 0 21.333333-8.533333 21.333334-21.333333V170.666667c0-12.8-8.533333-21.333333-21.333334-21.333334H192z"
        fill="#301196" p-id="1921"></path>
    <path
        d="M832 763.733333H554.666667c-34.133333 0-64-29.866667-64-64V285.866667c0-34.133333 29.866667-64 64-64h277.333333c34.133333 0 64 29.866667 64 64v413.866666c0 38.4-29.866667 64-64 64zM554.666667 264.533333c-12.8 0-21.333333 8.533333-21.333334 21.333334v413.866666c0 12.8 8.533333 21.333333 21.333334 21.333334h277.333333c12.8 0 21.333333-8.533333 21.333333-21.333334V285.866667c0-12.8-8.533333-21.333333-21.333333-21.333334H554.666667z"
        fill="#301196" p-id="1922"></path>
</svg>