<svg t="1687697071341" class="icon" viewBox="0 0 1024 1024" version="1.1"
    xmlns="http://www.w3.org/2000/svg" p-id="2622" width="22" height="22">
    <path
        d="M768 960H128c-17.67 0-32-14.33-32-32V224c0-17.67 14.33-32 32-32h640c17.67 0 32 14.33 32 32v704c0 17.67-14.33 32-32 32z m-608-64h576V256H160v640z"
        p-id="2623" fill="#7B7B7B"></path>
    <path
        d="M896 864c-17.67 0-32-14.33-32-32V128H225c-17.67 0-32-14.33-32-32s14.33-32 32-32h671c17.67 0 32 14.33 32 32v736c0 17.67-14.33 32-32 32zM288 832h-64V608c0-17.67 14.33-32 32-32s32 14.33 32 32v224zM480 832h-64V672c0-17.67 14.33-32 32-32s32 14.33 32 32v160z"
        p-id="2624" fill="#7B7B7B"></path>
    <path d="M672 832h-64V544c0-17.67 14.33-32 32-32s32 14.33 32 32v288z" p-id="2625" fill="#7B7B7B"></path>
    <path
        d="M448.02 512c-9.07 0-18.03-3.84-24.31-11.18L352 417.17l-71.7 83.65c-11.5 13.42-31.7 14.97-45.12 3.47-13.42-11.5-14.97-31.7-3.47-45.12l96-112a32 32 0 0 1 24.3-11.17 32 32 0 0 1 24.3 11.17l77.55 90.47 168.41-112.27c14.7-9.8 34.57-5.83 44.38 8.88 9.8 14.71 5.83 34.57-8.88 44.38l-192 128a32.008 32.008 0 0 1-17.75 5.37z"
        p-id="2626" fill="#7B7B7B"></path>
</svg>