<svg t="1684028037161" class="icon" viewBox="0 0 1024 1024" version="1.1"
     xmlns="http://www.w3.org/2000/svg" p-id="19917" width="14" height="14">
    <path
            d="M510 693c-99.8 0-181-81.2-181-181s81.2-181 181-181 181 81.2 181 181-81.2 181-181 181z m0-332c-83.3 0-151 67.7-151 151s67.7 151 151 151 151-67.7 151-151-67.7-151-151-151z"
            p-id="19918" fill="#F2AA08"></path>
    <path
            d="M373.6 393H292c-5.5 0-10-4.5-10-10v-67c0-5.5 4.5-10 10-10h319c5.5 0 10-4.5 10-10v-16.4l75.5 65c4.7 4.1 4.6 11.5-0.3 15.4l-46.4 37.1c8.5 10.3 15.9 21.6 21.9 33.7l87.1-69.7c4.9-3.9 5-11.3 0.3-15.4L597.5 206.6c-6.5-5.6-16.5-1-16.5 7.6V266H252c-5.5 0-10 4.5-10 10v147c0 5.5 4.5 10 10 10h95.1c7.1-14.5 16-28 26.5-40zM565.4 570H457.8c-8.8 0-16.6-4.6-20.9-12.2-4.3-7.6-4.1-16.7 0.4-24.2l54.1-89.1c4.4-7.2 12-11.5 20.5-11.5h0.1c8.5 0 16.1 4.4 20.5 11.6l53.4 89.1c4.5 7.5 4.6 16.5 0.3 24.1-4.3 7.7-12.1 12.2-20.8 12.2z m-56.9-115.1L454.4 544c-1 1.7-0.5 3.2-0.1 4 0.4 0.8 1.4 2 3.4 2h107.5c2 0 3-1.3 3.4-2 0.4-0.7 1-2.3 0-4l-53.4-89c-1-1.7-2.5-1.9-3.4-1.9-0.7 0-2.2 0.2-3.3 1.8zM387.2 645c-4.6-4.3-9.1-8.8-13.2-13.6"
            p-id="19919" fill="#F2AA08"></path>
    <path
            d="M665.3 595c-8.9 14.9-19.9 28.3-32.5 40H704c5.5 0 10 4.5 10 10v67c0 5.5-4.5 10-10 10H385c-5.5 0-10 4.5-10 10v16.4l-75.5-65c-4.7-4.1-4.6-11.5 0.3-15.4l67.9-54.3c-8.3-10.5-15.4-22-21.2-34.3l-109.3 87.4c-4.9 3.9-5 11.3-0.3 15.4l161.7 139.1c6.5 5.6 16.5 1 16.5-7.6V762h329c5.5 0 10-4.5 10-10V605c0-5.5-4.5-10-10-10h-78.8z"
            p-id="19920" fill="#F2AA08"></path>
</svg>