<svg t="1681216281758" class="icon" viewBox="0 0 1024 1024" version="1.1"
     xmlns="http://www.w3.org/2000/svg" p-id="1517" width="26" height="26">
    <path
            d="M887.0462301677038 159.14585414162968h-15.53445925925926c-13.315251313777777 0-22.19208430933333 8.876834209185184-22.19208430933333 22.19208430933333s8.876834209185184 22.19208430933333 22.19208430933333 22.19208430933333h15.53445925925926c11.096042154666666 0 22.19208430933333 8.876834209185184 22.19208552296296 22.19208552296296v106.5220056557037H119.20010141392589v-106.5220056557037c0-11.096042154666666 8.876834209185184-22.19208430933333 22.19208430933333-22.19208552296296h596.9670781155555c13.315251313777777 0 22.19208430933333-8.876834209185184 22.19208430933333-22.19208430933333s-8.876834209185184-22.19208430933333-22.19208430933333-22.19208430933333h-599.1862860610371c-35.50733562311111 0-66.57625414162963 28.849710573037036-66.57625414162963 66.57625414162963v565.8981583834073c0 35.50733562311111 28.849710573037036 66.57625414162963 66.57625414162963 66.57625414162963h747.8732523899258c35.50733562311111 0 66.57625414162963-28.849710573037036 66.57625414162963-66.57625414162963V225.72210828325927c0-37.72654356859259-31.06891851851852-66.57625414162963-66.57625414162963-66.57625414162963z m22.19208552296296 630.2552045795555c0 11.096042154666666-8.876834209185184 22.19208430933333-22.19208552296296 22.19208430933333H139.17297777777782c-11.096042154666666 0-22.19208430933333-8.876834209185184-22.19208430933333-22.19208430933333V376.62828377125925h790.038213063111v412.77277494992586z"
            fill="#A8A9AA" p-id="1518"></path>
    <path
            d="M216.8452740740741 538.6305014139259h310.6891851851852c13.315251313777777 0 22.19208430933333-8.876834209185184 22.19208430933333-22.19208430933333s-8.876834209185184-22.19208430933333-22.19208430933333-22.19208430933333h-310.6891851851852c-13.315251313777777 0-22.19208430933333 8.876834209185184-22.19208430933333 22.19208430933333s11.096042154666666 22.19208430933333 22.19208430933333 22.19208430933333zM618.5220068693334 538.6305014139259h55.480210773333326c13.315251313777777 0 22.19208430933333-8.876834209185184 22.19208552296296-22.19208430933333s-8.876834209185184-22.19208430933333-22.19208552296296-22.19208430933333h-55.480210773333326c-13.315251313777777 0-22.19208430933333 8.876834209185184-22.19208552296296 22.19208430933333s8.876834209185184 22.19208430933333 22.19208552296296 22.19208430933333zM216.8452740740741 658.4677583834074h288.49710087585186c13.315251313777777 0 22.19208430933333-8.876834209185184 22.19208430933333-22.19208430933333s-8.876834209185184-22.19208430933333-22.19208430933333-22.19208430933333h-288.49710087585186c-13.315251313777777 0-22.19208430933333 8.876834209185184-22.19208430933333 22.19208430933333s11.096042154666666 22.19208430933333 22.19208430933333 22.19208430933333z"
            fill="#A8A9AA" p-id="1519"></path>
</svg>