<svg t="1684028426577" class="icon" viewBox="0 0 1024 1024" version="1.1"
     xmlns="http://www.w3.org/2000/svg" p-id="22353" width="14" height="14">
    <path d="M420.096 90.24l180.032 0 0 663.552-180.032 0 0-663.552Z" fill="#8BC34A" p-id="22354"></path>
    <path d="M180.224 397.632l179.968 0 0 356.16-179.968 0 0-356.16Z" fill="#8BC34A" p-id="22355"></path>
    <path d="M660.032 278.656l180.032 0 0 475.2-180.032 0 0-475.2Z" fill="#8BC34A" p-id="22356"></path>
    <path d="M64 816.64l896 0 0 117.12-896 0 0-117.12Z" fill="#8BC34A" p-id="22357"></path>
    <path d="M485.76 159.616l114.368 0 0 594.24-114.368 0 0-594.24Z" fill="#8BC34A" p-id="22358"></path>
    <path d="M245.824 465.152l114.368 0 0 288.704-114.368 0 0-288.704Z" fill="#8BC34A" p-id="22359"></path>
    <path d="M725.696 341.44l114.368 0 0 412.352-114.368 0 0-412.352Z" fill="#8BC34A" p-id="22360"></path>
    <path d="M123.072 875.648l836.928 0 0 58.112-836.928 0 0-58.112Z" fill="#8BC34A" p-id="22361"></path>
</svg>