<svg t="1684027530114" class="icon" viewBox="0 0 1024 1024" version="1.1"
     xmlns="http://www.w3.org/2000/svg" p-id="9643" width="14" height="14">
    <path
            d="M810.666667 128H213.333333c-46.933333 0-85.333333 38.4-85.333333 85.333333v170.666667c0 46.933333 38.4 85.333333 85.333333 85.333333h597.333334c46.933333 0 85.333333-38.4 85.333333-85.333333V213.333333c0-46.933333-38.4-85.333333-85.333333-85.333333z m-384 213.333333H256V256h170.666667v85.333333z m170.666666 0h-85.333333V256h85.333333v85.333333z m170.666667 0h-85.333333V256h85.333333v85.333333zM810.666667 554.666667H213.333333c-46.933333 0-85.333333 38.4-85.333333 85.333333v170.666667c0 46.933333 38.4 85.333333 85.333333 85.333333h597.333334c46.933333 0 85.333333-38.4 85.333333-85.333333v-170.666667c0-46.933333-38.4-85.333333-85.333333-85.333333z m-384 213.333333H256v-85.333333h170.666667v85.333333z m170.666666 0h-85.333333v-85.333333h85.333333v85.333333z m170.666667 0h-85.333333v-85.333333h85.333333v85.333333z"
            fill="#7B7B7B" p-id="9644"></path>
</svg>