<svg t="1681216506558" class="icon" viewBox="0 0 1024 1024" version="1.1"
     xmlns="http://www.w3.org/2000/svg" p-id="15533" width="26" height="26">
    <path
            d="M896 800h-160c-17.6 0-32-14.4-32-32s14.4-32 32-32h160c17.6 0 32 14.4 32 32s-14.4 32-32 32z m-288 0H128c-17.6 0-32-14.4-32-32s14.4-32 32-32h480c17.6 0 32 14.4 32 32s-14.4 32-32 32z m288-256H416c-17.6 0-32-14.4-32-32s14.4-32 32-32h480c17.6 0 32 14.4 32 32s-14.4 32-32 32z m-608 0H128c-17.6 0-32-14.4-32-32s14.4-32 32-32h160c17.6 0 32 14.4 32 32s-14.4 32-32 32z m608-256h-160c-17.6 0-32-14.4-32-32s14.4-32 32-32h160c17.6 0 32 14.4 32 32s-14.4 32-32 32z m-288 0H128c-17.6 0-32-14.4-32-32s14.4-32 32-32h480c17.6 0 32 14.4 32 32s-14.4 32-32 32z"
            p-id="15534" fill="#A8A9AA"></path>
    <path
            d="M672 352c-53 0-96-43-96-96s43-96 96-96 96 43 96 96-43 96-96 96z m0-128c-17.6 0-32 14.4-32 32s14.4 32 32 32 32-14.4 32-32-14.4-32-32-32zM352 608c-53 0-96-43-96-96s43-96 96-96 96 43 96 96-43 96-96 96z m0-128c-17.6 0-32 14.4-32 32s14.4 32 32 32 32-14.4 32-32-14.4-32-32-32zM672 864c-53 0-96-43-96-96s43-96 96-96 96 43 96 96-43 96-96 96z m0-128c-17.6 0-32 14.4-32 32s14.4 32 32 32 32-14.4 32-32-14.4-32-32-32z"
            p-id="15535" fill="#A8A9AA"></path>
</svg>