<svg t="1682690345858" class="icon" viewBox="0 0 1024 1024" version="1.1"
     xmlns="http://www.w3.org/2000/svg" p-id="48552" width="22" height="22">
    <path
            d="M401.664 554.666667l55.168 55.168a42.624 42.624 0 1 1-60.330667 60.330666l-128-128a42.624 42.624 0 0 1 0-60.330666l128-128a42.624 42.624 0 1 1 60.330667 60.330666L401.664 469.333333H896a42.666667 42.666667 0 0 1 0 85.333334H401.664zM725.333333 128a42.666667 42.666667 0 0 1 0 85.333333H128a42.666667 42.666667 0 0 1 0-85.333333h597.333333z m0 682.666667a42.666667 42.666667 0 0 1 0 85.333333H128a42.666667 42.666667 0 0 1 0-85.333333h597.333333z"
            p-id="48553" fill="#A8A9AA"></path>
    <path
            d="M401.664 554.666667l55.168 55.168a42.624 42.624 0 1 1-60.330667 60.330666l-128-128a42.624 42.624 0 0 1 0-60.330666l128-128a42.624 42.624 0 1 1 60.330667 60.330666L401.664 469.333333H896a42.666667 42.666667 0 0 1 0 85.333334H401.664zM725.333333 128a42.666667 42.666667 0 0 1 0 85.333333H128a42.666667 42.666667 0 0 1 0-85.333333h597.333333zM725.333333 810.666667a42.666667 42.666667 0 0 1 0 85.333333H128a42.666667 42.666667 0 0 1 0-85.333333h597.333333z"
            fill="#A8A9AA" p-id="48554"></path>
</svg>