<svg t="1680936410541" class="icon" viewBox="0 0 1024 1024" version="1.1"
     xmlns="http://www.w3.org/2000/svg" p-id="7996" width="22" height="22">
    <path
            d="M512.2 960.1c-5.8 0-11.4-1.7-16.1-5L100.9 684.5c-6.4-4.3-10.7-10.7-12.2-18.2s0-15.1 4.2-21.4c5.3-8 14.2-12.7 23.8-12.7 5.6 0 11.1 1.7 15.8 4.8 0.2 0.1 379.6 260 379.6 260l379-259.6c4.7-3.1 10.1-4.8 15.8-4.8 9.6 0 18.5 4.8 23.8 12.7 8.7 13 5.4 30.2-7.3 39.2L528.3 955.1c-4.8 3.3-10.3 5-16.1 5z m0-149c-5.8 0-11.4-1.7-16.1-5L100.9 535.6c-6.4-4.3-10.7-10.7-12.2-18.2s0-15.1 4.2-21.4c5.3-8 14.2-12.7 23.8-12.7 5.6 0 11.1 1.7 15.8 4.8 0.2 0.1 379.6 259.9 379.6 259.9l379-259.4c4.7-3.1 10.1-4.8 15.8-4.8 9.6 0 18.5 4.8 23.8 12.7 8.7 13 5.4 30.2-7.3 39.2L528.3 806.1c-4.8 3.2-10.3 5-16.1 5z m0-149.1c-5.8 0-11.4-1.7-16.2-5L100.9 386.6c-13-8.9-16.3-26.7-7.4-39.7 2-2.9 4.5-5.4 7.4-7.4L496 68.9c4.8-3.3 10.3-5 16.1-5s11.4 1.7 16.1 5l395.1 270.6c13 8.9 16.3 26.7 7.4 39.7-2 2.9-4.5 5.4-7.4 7.4l-395 270.6c-4.7 3.2-10.2 4.8-15.9 4.8h-0.2zM167.1 362.8l345.1 235.9 345.1-235.9L512.2 127 167.1 362.8z"
            fill="#A8A9AA" p-id="7997"></path>
</svg>