<svg
        t="1682690197732"
        class="icon"
        viewBox="0 0 1024 1024"
        version="1.1"
        xmlns="http://www.w3.org/2000/svg"
        p-id="39928"
        width="22"
        height="22"
>
    <path
            d="M880.2 63.6h-736c-44.2 0-80 35.8-80 80V670c0 44.2 35.8 80 80 80H477v137.6H230.4c-19.9 0-36 16.1-36 36s16.1 36 36 36h565.2c19.9 0 36-16.1 36-36s-16.1-36-36-36H549V750h331.2c44.2 0 80-35.8 80-80V143.6c0-44.1-35.8-80-80-80z m8 606.4c0 4.4-3.6 8-8 8h-736c-4.4 0-8-3.6-8-8V143.6c0-4.4 3.6-8 8-8h736c4.4 0 8 3.6 8 8V670z"
            fill="#A8A9AA"
            p-id="39929"
    ></path>
    <path
            d="M576.1 274.1H256c-19.9 0-36 16.1-36 36s16.1 36 36 36h320.1c19.9 0 36-16.1 36-36s-16.1-36-36-36zM448.1 467.5H256c-19.9 0-36 16.1-36 36s16.1 36 36 36h192c19.9 0 36-16.1 36-36s-16-36-35.9-36z"
            fill="#A8A9AA"
            p-id="39930"
    ></path>
</svg>
