<svg
        t="1686311503850"
        class="icon"
        viewBox="0 0 1024 1024"
        version="1.1"
        xmlns="http://www.w3.org/2000/svg"
        p-id="2389"
        width="22"
        height="22"
>
    <path d="M742.4 921.6h-512a25.6 25.6 0 0 1 0-51.2h512a25.6 25.6 0 0 1 0 51.2z" fill="#A8A9AA" p-id="2390"></path>
    <path
            d="M844.8 153.6a25.6 25.6 0 0 0-25.6 25.6v768a25.6 25.6 0 0 1-25.6 25.6h-563.2c-42.3424 0-76.8-34.4576-76.8-76.8S188.0576 819.2 230.4 819.2h460.8c42.3424 0 76.8-34.4576 76.8-76.8v-614.4c0-42.3424-34.4576-76.8-76.8-76.8h-512C136.8576 51.2 102.4 85.6576 102.4 128v768C102.4 966.5536 159.8464 1024 230.4 1024h563.2c42.3424 0 76.8-34.4576 76.8-76.8v-768a25.6 25.6 0 0 0-25.6-25.6z m-665.6-51.2h512a25.6 25.6 0 0 1 25.6 25.6v614.4a25.6 25.6 0 0 1-25.6 25.6h-460.8c-28.7744 0-55.3984 9.5744-76.8 25.6512V128a25.6 25.6 0 0 1 25.6-25.6z"
            fill="#A8A9AA"
            p-id="2391"
    ></path>
</svg>
