<svg
        t="1684026807666"
        class="icon"
        viewBox="0 0 1024 1024"
        version="1.1"
        xmlns="http://www.w3.org/2000/svg"
        p-id="14502"
        width="14"
        height="14"
>
    <path
            d="M1023.6928 269.568a74.048 74.048 0 0 0-22.656-54.464A77.696 77.696 0 0 0 946.1248 192l-612.48 0.448c-21.696 0-45.504 5.376-71.36 16.064-25.792 10.688-46.336 23.616-61.504 38.784L22.4768 425.6A75.008 75.008 0 0 0 0.1408 480.448c0.064 21.696 7.488 40 22.336 54.848l178.304 178.368c15.168 15.104 35.648 28.032 61.504 38.72 25.856 10.688 49.472 15.872 70.976 15.616l613.312 0.448c21.12 0 39.296-7.552 54.464-22.656 14.784-14.848 22.592-33.216 23.104-54.848l-0.448-421.376zM296.8448 535.232c-15.168 15.168-33.408 22.784-54.848 22.784s-39.744-7.552-54.912-22.72c-15.104-15.104-22.72-33.408-22.72-54.848s7.552-39.68 22.72-54.848c15.104-15.104 33.408-22.72 54.848-22.72 21.504 0.064 39.744 7.616 54.848 22.72 15.168 15.168 22.72 33.472 22.72 54.848 0 21.504-7.552 39.744-22.656 54.784z"
            p-id="14503"
            fill="#19b507"
    ></path>
</svg>
